<mxfile host="app.diagrams.net" modified="2024-03-14T09:25:41.177Z" agent="Mozilla/5.0 (Windows NT 10.0; Win64; x64) AppleWebKit/537.36 (KHTML, like Gecko) Chrome/122.0.0.0 Safari/537.36" etag="2gbrc-O4H3LSVfYM-Lgk" version="24.0.6" type="github">
  <diagram name="Page-1" id="pagSh598lR6TuXak9Gfi">
    <mxGraphModel dx="1434" dy="772" grid="1" gridSize="10" guides="1" tooltips="1" connect="1" arrows="1" fold="1" page="1" pageScale="1" pageWidth="827" pageHeight="1169" math="0" shadow="0">
      <root>
        <mxCell id="0" />
        <mxCell id="1" parent="0" />
        <mxCell id="BgDV876N4XdzTZUcYARY-25" style="edgeStyle=orthogonalEdgeStyle;rounded=0;orthogonalLoop=1;jettySize=auto;html=1;exitX=1;exitY=0.5;exitDx=0;exitDy=0;entryX=0;entryY=0.5;entryDx=0;entryDy=0;" edge="1" parent="1" source="BgDV876N4XdzTZUcYARY-1" target="BgDV876N4XdzTZUcYARY-3">
          <mxGeometry relative="1" as="geometry" />
        </mxCell>
        <mxCell id="BgDV876N4XdzTZUcYARY-1" value="Directus" style="swimlane;" vertex="1" parent="1">
          <mxGeometry x="240" y="200" width="120" height="160" as="geometry" />
        </mxCell>
        <mxCell id="BgDV876N4XdzTZUcYARY-6" value="" style="image;aspect=fixed;perimeter=ellipsePerimeter;html=1;align=center;shadow=0;dashed=0;spacingTop=3;image=img/lib/active_directory/generic_server.svg;" vertex="1" parent="BgDV876N4XdzTZUcYARY-1">
          <mxGeometry x="45.4" y="50" width="39.2" height="70" as="geometry" />
        </mxCell>
        <mxCell id="BgDV876N4XdzTZUcYARY-24" style="edgeStyle=orthogonalEdgeStyle;rounded=0;orthogonalLoop=1;jettySize=auto;html=1;exitX=1;exitY=0.5;exitDx=0;exitDy=0;entryX=0;entryY=0.5;entryDx=0;entryDy=0;" edge="1" parent="1" source="BgDV876N4XdzTZUcYARY-2" target="BgDV876N4XdzTZUcYARY-1">
          <mxGeometry relative="1" as="geometry" />
        </mxCell>
        <mxCell id="BgDV876N4XdzTZUcYARY-2" value="Next.js" style="swimlane;startSize=20;" vertex="1" parent="1">
          <mxGeometry x="80" y="200" width="120" height="160" as="geometry" />
        </mxCell>
        <mxCell id="BgDV876N4XdzTZUcYARY-9" value="" style="image;aspect=fixed;perimeter=ellipsePerimeter;html=1;align=center;shadow=0;dashed=0;spacingTop=3;image=img/lib/active_directory/generic_server.svg;" vertex="1" parent="BgDV876N4XdzTZUcYARY-2">
          <mxGeometry x="40.4" y="45" width="39.2" height="70" as="geometry" />
        </mxCell>
        <mxCell id="BgDV876N4XdzTZUcYARY-3" value="Postgresql" style="swimlane;startSize=30;" vertex="1" parent="1">
          <mxGeometry x="400" y="200" width="116" height="160" as="geometry" />
        </mxCell>
        <mxCell id="BgDV876N4XdzTZUcYARY-5" value="" style="image;aspect=fixed;perimeter=ellipsePerimeter;html=1;align=center;shadow=0;dashed=0;spacingTop=3;image=img/lib/active_directory/database_server.svg;" vertex="1" parent="BgDV876N4XdzTZUcYARY-3">
          <mxGeometry x="36" y="50" width="57.4" height="70" as="geometry" />
        </mxCell>
        <mxCell id="BgDV876N4XdzTZUcYARY-10" value="Apache Server Extermal" style="swimlane;fontStyle=1" vertex="1" parent="1">
          <mxGeometry x="560" y="200" width="200" height="160" as="geometry" />
        </mxCell>
        <mxCell id="BgDV876N4XdzTZUcYARY-4" value="" style="image;aspect=fixed;perimeter=ellipsePerimeter;html=1;align=center;shadow=0;dashed=0;spacingTop=3;image=img/lib/active_directory/web_server.svg;" vertex="1" parent="BgDV876N4XdzTZUcYARY-10">
          <mxGeometry x="72" y="45" width="56" height="70" as="geometry" />
        </mxCell>
        <mxCell id="BgDV876N4XdzTZUcYARY-17" style="edgeStyle=orthogonalEdgeStyle;rounded=0;orthogonalLoop=1;jettySize=auto;html=1;" edge="1" parent="1" source="BgDV876N4XdzTZUcYARY-22" target="BgDV876N4XdzTZUcYARY-2">
          <mxGeometry relative="1" as="geometry" />
        </mxCell>
        <mxCell id="BgDV876N4XdzTZUcYARY-18" style="edgeStyle=orthogonalEdgeStyle;rounded=0;orthogonalLoop=1;jettySize=auto;html=1;" edge="1" parent="1" source="BgDV876N4XdzTZUcYARY-19" target="BgDV876N4XdzTZUcYARY-10">
          <mxGeometry relative="1" as="geometry" />
        </mxCell>
        <mxCell id="BgDV876N4XdzTZUcYARY-26" style="edgeStyle=orthogonalEdgeStyle;rounded=0;orthogonalLoop=1;jettySize=auto;html=1;entryX=0.75;entryY=0;entryDx=0;entryDy=0;" edge="1" parent="1" source="BgDV876N4XdzTZUcYARY-27" target="BgDV876N4XdzTZUcYARY-2">
          <mxGeometry relative="1" as="geometry" />
        </mxCell>
        <mxCell id="BgDV876N4XdzTZUcYARY-16" value="&lt;b&gt;&lt;font style=&quot;font-size: 18px;&quot;&gt;Traefik&lt;/font&gt;&lt;/b&gt;&lt;div&gt;&lt;br&gt;&lt;/div&gt;" style="strokeWidth=1;shadow=0;dashed=0;align=center;html=1;shape=mxgraph.mockup.containers.window;align=left;verticalAlign=top;spacingLeft=8;strokeColor2=#008cff;strokeColor3=#c4c4c4;fontColor=#666666;mainText=;fontSize=17;labelBackgroundColor=none;whiteSpace=wrap;" vertex="1" parent="1">
          <mxGeometry x="350" y="80" width="150" height="30" as="geometry" />
        </mxCell>
        <mxCell id="BgDV876N4XdzTZUcYARY-20" value="" style="edgeStyle=orthogonalEdgeStyle;rounded=0;orthogonalLoop=1;jettySize=auto;html=1;" edge="1" parent="1" source="BgDV876N4XdzTZUcYARY-16" target="BgDV876N4XdzTZUcYARY-19">
          <mxGeometry relative="1" as="geometry">
            <mxPoint x="550" y="95" as="sourcePoint" />
            <mxPoint x="780" y="200" as="targetPoint" />
          </mxGeometry>
        </mxCell>
        <mxCell id="BgDV876N4XdzTZUcYARY-19" value="&lt;b&gt;Static Content&lt;/b&gt;" style="text;html=1;align=center;verticalAlign=middle;resizable=0;points=[];autosize=1;strokeColor=none;fillColor=none;" vertex="1" parent="1">
          <mxGeometry x="610" y="80" width="100" height="30" as="geometry" />
        </mxCell>
        <mxCell id="BgDV876N4XdzTZUcYARY-23" value="" style="edgeStyle=orthogonalEdgeStyle;rounded=0;orthogonalLoop=1;jettySize=auto;html=1;" edge="1" parent="1" source="BgDV876N4XdzTZUcYARY-16" target="BgDV876N4XdzTZUcYARY-22">
          <mxGeometry relative="1" as="geometry">
            <mxPoint x="350" y="95" as="sourcePoint" />
            <mxPoint x="140" y="200" as="targetPoint" />
          </mxGeometry>
        </mxCell>
        <mxCell id="BgDV876N4XdzTZUcYARY-22" value="&lt;b&gt;/academy&lt;/b&gt;" style="text;html=1;align=center;verticalAlign=middle;resizable=0;points=[];autosize=1;strokeColor=none;fillColor=none;" vertex="1" parent="1">
          <mxGeometry x="100" y="80" width="80" height="30" as="geometry" />
        </mxCell>
        <mxCell id="BgDV876N4XdzTZUcYARY-28" value="" style="edgeStyle=orthogonalEdgeStyle;rounded=0;orthogonalLoop=1;jettySize=auto;html=1;entryX=1;entryY=0.5;entryDx=0;entryDy=0;exitX=0.3;exitY=0.967;exitDx=0;exitDy=0;exitPerimeter=0;entryPerimeter=0;" edge="1" parent="1" source="BgDV876N4XdzTZUcYARY-16" target="BgDV876N4XdzTZUcYARY-27">
          <mxGeometry relative="1" as="geometry">
            <mxPoint x="350" y="95" as="sourcePoint" />
            <mxPoint x="200" y="200" as="targetPoint" />
          </mxGeometry>
        </mxCell>
        <mxCell id="BgDV876N4XdzTZUcYARY-27" value="&lt;b&gt;CMS Data&lt;/b&gt;" style="text;html=1;align=center;verticalAlign=middle;resizable=0;points=[];autosize=1;strokeColor=none;fillColor=none;" vertex="1" parent="1">
          <mxGeometry x="250" y="140" width="80" height="30" as="geometry" />
        </mxCell>
      </root>
    </mxGraphModel>
  </diagram>
</mxfile>
